<svg xmlns="http://www.w3.org/2000/svg" version="1.1" xmlns:xlink="http://www.w3.org/1999/xlink" viewBox="0 0 200 200"><rect width="200" height="200" fill="url('#gradient')"></rect><defs><linearGradient id="gradient" gradientTransform="rotate(45 0.5 0.5)"><stop offset="0%" stop-color="#ffffff"></stop><stop offset="100%" stop-color="#fad8d8"></stop></linearGradient></defs><g><g fill="#c52727" transform="matrix(7.560295324036095,0,0,7.560295324036095,10.221488530294536,152.99938734483288)" stroke="#c52727" stroke-width="0"><path d="M9.98 0L9.15-2.66L4.45-2.66L3.63 0L-0.03 0L5.19-14.22L8.41-14.22L13.66 0L9.98 0ZM6.80-10.23L5.27-5.30L8.33-5.30L6.80-10.23ZM20.36-4.46L20.36-14.22L23.78-14.22L23.78-4.46Q23.78-3.11 23.15-2.04Q22.52-0.98 21.39-0.39Q20.26 0.20 18.88 0.20L18.88 0.20Q16.55 0.20 15.26-0.98Q13.97-2.15 13.97-4.30L13.97-4.30L17.41-4.30Q17.41-3.32 17.75-2.88Q18.09-2.44 18.88-2.44L18.88-2.44Q19.59-2.44 19.98-2.97Q20.36-3.51 20.36-4.46L20.36-4.46Z"></path></g></g></svg>